<mxfile host="65bd71144e">
    <diagram id="990WQfI2n0MWwwEPtwKs" name="Page-1">
        <mxGraphModel dx="1382" dy="926" grid="1" gridSize="10" guides="1" tooltips="1" connect="1" arrows="1" fold="1" page="1" pageScale="1" pageWidth="1100" pageHeight="850" math="0" shadow="0">
            <root>
                <mxCell id="0"/>
                <mxCell id="1" parent="0"/>
                <mxCell id="51" style="edgeStyle=none;html=1;entryX=1;entryY=0.5;entryDx=0;entryDy=0;fontSize=25;fillColor=#1ba1e2;strokeColor=#006EAF;strokeWidth=3;" edge="1" parent="1" source="2" target="49">
                    <mxGeometry relative="1" as="geometry">
                        <Array as="points">
                            <mxPoint x="290" y="105"/>
                        </Array>
                    </mxGeometry>
                </mxCell>
                <mxCell id="53" style="edgeStyle=none;html=1;entryX=1;entryY=0.5;entryDx=0;entryDy=0;strokeWidth=3;fontSize=25;fillColor=#d80073;strokeColor=#A50040;exitX=0.001;exitY=0.216;exitDx=0;exitDy=0;exitPerimeter=0;" edge="1" parent="1" source="4" target="52">
                    <mxGeometry relative="1" as="geometry">
                        <Array as="points">
                            <mxPoint x="290" y="175"/>
                        </Array>
                    </mxGeometry>
                </mxCell>
                <mxCell id="2" value="" style="swimlane;startSize=0;fillColor=#1ba1e2;fontColor=#ffffff;strokeColor=#006EAF;strokeWidth=3;" vertex="1" parent="1">
                    <mxGeometry x="390" y="70" width="700" height="560" as="geometry"/>
                </mxCell>
                <mxCell id="3" value="MessageBus Manager" style="text;html=1;strokeColor=none;fillColor=none;align=center;verticalAlign=middle;whiteSpace=wrap;rounded=0;fontSize=25;" vertex="1" parent="2">
                    <mxGeometry x="210" width="280" height="30" as="geometry"/>
                </mxCell>
                <mxCell id="4" value="" style="swimlane;startSize=0;fontSize=25;fillColor=#d80073;fontColor=#ffffff;strokeColor=#A50040;strokeWidth=3;" vertex="1" parent="2">
                    <mxGeometry x="10" y="40" width="680" height="520" as="geometry"/>
                </mxCell>
                <mxCell id="5" value="" style="rounded=0;whiteSpace=wrap;html=1;fontSize=25;fillColor=none;fontColor=#ffffff;strokeColor=#2D7600;gradientColor=default;strokeWidth=3;" vertex="1" parent="4">
                    <mxGeometry x="10" y="10" width="660" height="160" as="geometry"/>
                </mxCell>
                <mxCell id="8" value="Bus" style="text;html=1;strokeColor=none;fillColor=none;align=center;verticalAlign=middle;whiteSpace=wrap;rounded=0;fontSize=20;" vertex="1" parent="4">
                    <mxGeometry x="310" y="10" width="60" height="30" as="geometry"/>
                </mxCell>
                <mxCell id="9" value="" style="rounded=0;whiteSpace=wrap;html=1;fontSize=20;fillColor=none;fontColor=#000000;strokeColor=#BD7000;gradientColor=default;strokeWidth=3;" vertex="1" parent="4">
                    <mxGeometry x="20" y="40" width="150" height="120" as="geometry"/>
                </mxCell>
                <mxCell id="10" value="General Info" style="text;html=1;strokeColor=none;fillColor=none;align=center;verticalAlign=middle;whiteSpace=wrap;rounded=0;fontSize=15;" vertex="1" parent="4">
                    <mxGeometry x="45" y="40" width="100" height="30" as="geometry"/>
                </mxCell>
                <mxCell id="11" value="" style="rounded=0;whiteSpace=wrap;html=1;fontSize=20;fillColor=none;strokeColor=#FF33FF;gradientColor=default;strokeWidth=3;" vertex="1" parent="4">
                    <mxGeometry x="180" y="40" width="320" height="120" as="geometry"/>
                </mxCell>
                <mxCell id="12" value="Queues" style="text;html=1;strokeColor=none;fillColor=none;align=center;verticalAlign=middle;whiteSpace=wrap;rounded=0;fontSize=15;" vertex="1" parent="4">
                    <mxGeometry x="290" y="40" width="100" height="30" as="geometry"/>
                </mxCell>
                <mxCell id="13" value="" style="rounded=0;whiteSpace=wrap;html=1;fontSize=20;fontColor=#0000FF;strokeColor=#00FF00;strokeWidth=3;" vertex="1" parent="4">
                    <mxGeometry x="510" y="40" width="150" height="120" as="geometry"/>
                </mxCell>
                <mxCell id="14" value="Errors" style="text;html=1;strokeColor=none;fillColor=none;align=center;verticalAlign=middle;whiteSpace=wrap;rounded=0;fontSize=15;" vertex="1" parent="4">
                    <mxGeometry x="535" y="40" width="100" height="30" as="geometry"/>
                </mxCell>
                <mxCell id="15" value="Queue Info" style="rounded=0;whiteSpace=wrap;html=1;fontSize=15;strokeColor=#FFFF66;" vertex="1" parent="4">
                    <mxGeometry x="180" y="70" width="320" height="30" as="geometry"/>
                </mxCell>
                <mxCell id="16" value="Queue Info" style="rounded=0;whiteSpace=wrap;html=1;fontSize=15;" vertex="1" parent="4">
                    <mxGeometry x="180" y="100" width="320" height="30" as="geometry"/>
                </mxCell>
                <mxCell id="17" value="Queue Info" style="rounded=0;whiteSpace=wrap;html=1;fontSize=15;" vertex="1" parent="4">
                    <mxGeometry x="180" y="130" width="320" height="30" as="geometry"/>
                </mxCell>
                <mxCell id="18" value="Error Info" style="rounded=0;whiteSpace=wrap;html=1;fontSize=15;fontColor=#CCFFFF;strokeColor=#CCFFFF;strokeWidth=3;" vertex="1" parent="4">
                    <mxGeometry x="510" y="70" width="150" height="30" as="geometry"/>
                </mxCell>
                <mxCell id="19" value="Error Info" style="rounded=0;whiteSpace=wrap;html=1;fontSize=15;" vertex="1" parent="4">
                    <mxGeometry x="510" y="100" width="150" height="30" as="geometry"/>
                </mxCell>
                <mxCell id="20" value="Error Info" style="rounded=0;whiteSpace=wrap;html=1;fontSize=15;" vertex="1" parent="4">
                    <mxGeometry x="510" y="130" width="150" height="30" as="geometry"/>
                </mxCell>
                <mxCell id="21" value="" style="rounded=0;whiteSpace=wrap;html=1;fontSize=25;" vertex="1" parent="4">
                    <mxGeometry x="10" y="180" width="660" height="160" as="geometry"/>
                </mxCell>
                <mxCell id="22" value="Bus" style="text;html=1;strokeColor=none;fillColor=none;align=center;verticalAlign=middle;whiteSpace=wrap;rounded=0;fontSize=20;" vertex="1" parent="4">
                    <mxGeometry x="310" y="180" width="60" height="30" as="geometry"/>
                </mxCell>
                <mxCell id="23" value="" style="rounded=0;whiteSpace=wrap;html=1;fontSize=20;" vertex="1" parent="4">
                    <mxGeometry x="20" y="210" width="150" height="120" as="geometry"/>
                </mxCell>
                <mxCell id="24" value="General Info" style="text;html=1;strokeColor=none;fillColor=none;align=center;verticalAlign=middle;whiteSpace=wrap;rounded=0;fontSize=15;" vertex="1" parent="4">
                    <mxGeometry x="45" y="210" width="100" height="30" as="geometry"/>
                </mxCell>
                <mxCell id="25" value="" style="rounded=0;whiteSpace=wrap;html=1;fontSize=20;" vertex="1" parent="4">
                    <mxGeometry x="180" y="210" width="320" height="120" as="geometry"/>
                </mxCell>
                <mxCell id="26" value="Queues" style="text;html=1;strokeColor=none;fillColor=none;align=center;verticalAlign=middle;whiteSpace=wrap;rounded=0;fontSize=15;" vertex="1" parent="4">
                    <mxGeometry x="290" y="210" width="100" height="30" as="geometry"/>
                </mxCell>
                <mxCell id="27" value="" style="rounded=0;whiteSpace=wrap;html=1;fontSize=20;" vertex="1" parent="4">
                    <mxGeometry x="510" y="210" width="150" height="120" as="geometry"/>
                </mxCell>
                <mxCell id="28" value="Errors" style="text;html=1;strokeColor=none;fillColor=none;align=center;verticalAlign=middle;whiteSpace=wrap;rounded=0;fontSize=15;" vertex="1" parent="4">
                    <mxGeometry x="535" y="210" width="100" height="30" as="geometry"/>
                </mxCell>
                <mxCell id="29" value="Queue Info" style="rounded=0;whiteSpace=wrap;html=1;fontSize=15;" vertex="1" parent="4">
                    <mxGeometry x="180" y="240" width="320" height="30" as="geometry"/>
                </mxCell>
                <mxCell id="30" value="Queue Info" style="rounded=0;whiteSpace=wrap;html=1;fontSize=15;" vertex="1" parent="4">
                    <mxGeometry x="180" y="270" width="320" height="30" as="geometry"/>
                </mxCell>
                <mxCell id="31" value="Queue Info" style="rounded=0;whiteSpace=wrap;html=1;fontSize=15;" vertex="1" parent="4">
                    <mxGeometry x="180" y="300" width="320" height="30" as="geometry"/>
                </mxCell>
                <mxCell id="32" value="Error Info" style="rounded=0;whiteSpace=wrap;html=1;fontSize=15;" vertex="1" parent="4">
                    <mxGeometry x="510" y="240" width="150" height="30" as="geometry"/>
                </mxCell>
                <mxCell id="33" value="Error Info" style="rounded=0;whiteSpace=wrap;html=1;fontSize=15;" vertex="1" parent="4">
                    <mxGeometry x="510" y="270" width="150" height="30" as="geometry"/>
                </mxCell>
                <mxCell id="34" value="Error Info" style="rounded=0;whiteSpace=wrap;html=1;fontSize=15;" vertex="1" parent="4">
                    <mxGeometry x="510" y="300" width="150" height="30" as="geometry"/>
                </mxCell>
                <mxCell id="35" value="" style="rounded=0;whiteSpace=wrap;html=1;fontSize=25;" vertex="1" parent="4">
                    <mxGeometry x="10" y="350" width="660" height="160" as="geometry"/>
                </mxCell>
                <mxCell id="36" value="Bus" style="text;html=1;strokeColor=none;fillColor=none;align=center;verticalAlign=middle;whiteSpace=wrap;rounded=0;fontSize=20;" vertex="1" parent="4">
                    <mxGeometry x="310" y="350" width="60" height="30" as="geometry"/>
                </mxCell>
                <mxCell id="37" value="" style="rounded=0;whiteSpace=wrap;html=1;fontSize=20;" vertex="1" parent="4">
                    <mxGeometry x="20" y="380" width="150" height="120" as="geometry"/>
                </mxCell>
                <mxCell id="38" value="General Info" style="text;html=1;strokeColor=none;fillColor=none;align=center;verticalAlign=middle;whiteSpace=wrap;rounded=0;fontSize=15;" vertex="1" parent="4">
                    <mxGeometry x="45" y="380" width="100" height="30" as="geometry"/>
                </mxCell>
                <mxCell id="39" value="" style="rounded=0;whiteSpace=wrap;html=1;fontSize=20;" vertex="1" parent="4">
                    <mxGeometry x="180" y="380" width="320" height="120" as="geometry"/>
                </mxCell>
                <mxCell id="40" value="Queues" style="text;html=1;strokeColor=none;fillColor=none;align=center;verticalAlign=middle;whiteSpace=wrap;rounded=0;fontSize=15;" vertex="1" parent="4">
                    <mxGeometry x="290" y="380" width="100" height="30" as="geometry"/>
                </mxCell>
                <mxCell id="41" value="" style="rounded=0;whiteSpace=wrap;html=1;fontSize=20;" vertex="1" parent="4">
                    <mxGeometry x="510" y="380" width="150" height="120" as="geometry"/>
                </mxCell>
                <mxCell id="42" value="Errors" style="text;html=1;strokeColor=none;fillColor=none;align=center;verticalAlign=middle;whiteSpace=wrap;rounded=0;fontSize=15;" vertex="1" parent="4">
                    <mxGeometry x="535" y="380" width="100" height="30" as="geometry"/>
                </mxCell>
                <mxCell id="43" value="Queue Info" style="rounded=0;whiteSpace=wrap;html=1;fontSize=15;" vertex="1" parent="4">
                    <mxGeometry x="180" y="410" width="320" height="30" as="geometry"/>
                </mxCell>
                <mxCell id="44" value="Queue Info" style="rounded=0;whiteSpace=wrap;html=1;fontSize=15;" vertex="1" parent="4">
                    <mxGeometry x="180" y="440" width="320" height="30" as="geometry"/>
                </mxCell>
                <mxCell id="45" value="Queue Info" style="rounded=0;whiteSpace=wrap;html=1;fontSize=15;" vertex="1" parent="4">
                    <mxGeometry x="180" y="470" width="320" height="30" as="geometry"/>
                </mxCell>
                <mxCell id="46" value="Error Info" style="rounded=0;whiteSpace=wrap;html=1;fontSize=15;" vertex="1" parent="4">
                    <mxGeometry x="510" y="410" width="150" height="30" as="geometry"/>
                </mxCell>
                <mxCell id="47" value="Error Info" style="rounded=0;whiteSpace=wrap;html=1;fontSize=15;" vertex="1" parent="4">
                    <mxGeometry x="510" y="440" width="150" height="30" as="geometry"/>
                </mxCell>
                <mxCell id="48" value="Error Info" style="rounded=0;whiteSpace=wrap;html=1;fontSize=15;" vertex="1" parent="4">
                    <mxGeometry x="510" y="470" width="150" height="30" as="geometry"/>
                </mxCell>
                <mxCell id="49" value="Root" style="rounded=0;whiteSpace=wrap;html=1;strokeWidth=3;fontSize=15;fillColor=#1ba1e2;fontColor=#ffffff;strokeColor=#006EAF;" vertex="1" parent="1">
                    <mxGeometry x="110" y="90" width="120" height="30" as="geometry"/>
                </mxCell>
                <mxCell id="50" value="React Doom Structure" style="text;html=1;strokeColor=none;fillColor=none;align=center;verticalAlign=middle;whiteSpace=wrap;rounded=0;strokeWidth=3;fontSize=25;" vertex="1" parent="1">
                    <mxGeometry x="10" y="20" width="320" height="30" as="geometry"/>
                </mxCell>
                <mxCell id="52" value="Buses List" style="rounded=0;whiteSpace=wrap;html=1;strokeWidth=3;fontSize=15;fillColor=#d80073;fontColor=#ffffff;strokeColor=#A50040;" vertex="1" parent="1">
                    <mxGeometry x="110" y="160" width="120" height="30" as="geometry"/>
                </mxCell>
                <mxCell id="54" value="Bus Object" style="rounded=0;whiteSpace=wrap;html=1;strokeWidth=3;fontSize=15;fillColor=#008a00;fontColor=#ffffff;strokeColor=#005700;" vertex="1" parent="1">
                    <mxGeometry x="110" y="230" width="120" height="30" as="geometry"/>
                </mxCell>
                <mxCell id="55" style="edgeStyle=none;html=1;entryX=1;entryY=0.5;entryDx=0;entryDy=0;strokeWidth=3;fontSize=25;fillColor=#008a00;strokeColor=#005700;" edge="1" parent="1" source="5" target="54">
                    <mxGeometry relative="1" as="geometry">
                        <Array as="points">
                            <mxPoint x="280" y="245"/>
                        </Array>
                    </mxGeometry>
                </mxCell>
                <mxCell id="56" value="General Info Object" style="rounded=0;whiteSpace=wrap;html=1;strokeWidth=3;fontSize=15;fillColor=#f0a30a;fontColor=#000000;strokeColor=#BD7000;" vertex="1" parent="1">
                    <mxGeometry x="110" y="300" width="120" height="40" as="geometry"/>
                </mxCell>
                <mxCell id="57" style="edgeStyle=none;html=1;entryX=1;entryY=0.5;entryDx=0;entryDy=0;strokeWidth=3;fontSize=25;fillColor=#f0a30a;strokeColor=#BD7000;" edge="1" parent="1" source="9" target="56">
                    <mxGeometry relative="1" as="geometry">
                        <Array as="points">
                            <mxPoint x="290" y="315"/>
                        </Array>
                    </mxGeometry>
                </mxCell>
                <mxCell id="58" value="Queues List" style="rounded=0;whiteSpace=wrap;html=1;strokeWidth=3;fontSize=15;fillColor=#FF33FF;fontColor=#000000;strokeColor=#FF33FF;" vertex="1" parent="1">
                    <mxGeometry x="110" y="385" width="120" height="25" as="geometry"/>
                </mxCell>
                <mxCell id="59" style="edgeStyle=none;html=1;entryX=1;entryY=0.5;entryDx=0;entryDy=0;strokeWidth=3;fontSize=25;strokeColor=#FF33FF;exitX=0;exitY=0;exitDx=0;exitDy=0;" edge="1" parent="1" source="16" target="58">
                    <mxGeometry relative="1" as="geometry">
                        <Array as="points">
                            <mxPoint x="300" y="398"/>
                        </Array>
                    </mxGeometry>
                </mxCell>
                <mxCell id="60" value="Queue Object" style="rounded=0;whiteSpace=wrap;html=1;strokeWidth=3;fontSize=15;fillColor=#FFFF66;fontColor=#000000;strokeColor=#FFFF66;" vertex="1" parent="1">
                    <mxGeometry x="110" y="460" width="120" height="25" as="geometry"/>
                </mxCell>
                <mxCell id="61" style="edgeStyle=none;html=1;entryX=1;entryY=0.5;entryDx=0;entryDy=0;strokeColor=#FFFF66;strokeWidth=3;fontSize=25;" edge="1" parent="1" source="15" target="60">
                    <mxGeometry relative="1" as="geometry">
                        <Array as="points">
                            <mxPoint x="300" y="473"/>
                        </Array>
                    </mxGeometry>
                </mxCell>
                <mxCell id="62" value="Errors List" style="rounded=0;whiteSpace=wrap;html=1;strokeWidth=3;fontSize=15;fillColor=#00FF00;fontColor=#FFFFFF;strokeColor=#00FF00;" vertex="1" parent="1">
                    <mxGeometry x="110" y="540" width="120" height="25" as="geometry"/>
                </mxCell>
                <mxCell id="63" style="edgeStyle=none;html=1;entryX=1;entryY=0.5;entryDx=0;entryDy=0;strokeColor=#00FF00;strokeWidth=3;fontSize=25;fontColor=#0000FF;exitX=0;exitY=0.5;exitDx=0;exitDy=0;" edge="1" parent="1" source="13" target="62">
                    <mxGeometry relative="1" as="geometry">
                        <Array as="points">
                            <mxPoint x="310" y="550"/>
                        </Array>
                    </mxGeometry>
                </mxCell>
                <mxCell id="64" value="Error Object" style="rounded=0;whiteSpace=wrap;html=1;strokeWidth=3;fontSize=15;fillColor=#CCFFFF;fontColor=#000000;strokeColor=#CCFFFF;" vertex="1" parent="1">
                    <mxGeometry x="110" y="620" width="120" height="25" as="geometry"/>
                </mxCell>
                <mxCell id="65" style="edgeStyle=none;html=1;entryX=1;entryY=0.5;entryDx=0;entryDy=0;strokeColor=#CCFFFF;strokeWidth=3;fontSize=25;fontColor=#CCFFFF;" edge="1" parent="1" source="18" target="64">
                    <mxGeometry relative="1" as="geometry">
                        <Array as="points">
                            <mxPoint x="310" y="633"/>
                        </Array>
                    </mxGeometry>
                </mxCell>
            </root>
        </mxGraphModel>
    </diagram>
</mxfile>